<mxfile host="app.diagrams.net" modified="2020-05-19T04:44:25.632Z" agent="5.0 (Windows NT 10.0; Win64; x64) AppleWebKit/537.36 (KHTML, like Gecko) Chrome/81.0.4044.138 Safari/537.36" etag="6I4fAdPq3rfxmJ-JlKQr" version="13.1.2" type="github">
  <diagram id="r900yOcnoeXVOKVt3aWr" name="Page-1">
    <mxGraphModel dx="782" dy="-680" grid="1" gridSize="10" guides="1" tooltips="1" connect="1" arrows="1" fold="1" page="1" pageScale="1" pageWidth="850" pageHeight="1100" math="0" shadow="0">
      <root>
        <mxCell id="0" />
        <mxCell id="1" parent="0" />
        <mxCell id="voaHNW0k9UuCX55IlwGp-2" value="" style="rounded=0;whiteSpace=wrap;html=1;fillColor=#f5f5f5;strokeColor=#666666;fontColor=#333333;" parent="1" vertex="1">
          <mxGeometry x="200" y="1270" width="390" height="200" as="geometry" />
        </mxCell>
        <mxCell id="voaHNW0k9UuCX55IlwGp-14" style="edgeStyle=orthogonalEdgeStyle;rounded=0;orthogonalLoop=1;jettySize=auto;html=1;exitX=1;exitY=0.5;exitDx=0;exitDy=0;exitPerimeter=0;" parent="1" edge="1">
          <mxGeometry relative="1" as="geometry">
            <mxPoint x="317" y="1585" as="targetPoint" />
            <mxPoint x="160" y="1595" as="sourcePoint" />
            <Array as="points">
              <mxPoint x="160" y="1585" />
            </Array>
          </mxGeometry>
        </mxCell>
        <mxCell id="voaHNW0k9UuCX55IlwGp-3" value="" style="rounded=1;whiteSpace=wrap;html=1;fillColor=#f5f5f5;strokeColor=#666666;fontColor=#333333;" parent="1" vertex="1">
          <mxGeometry x="10" y="1560" width="150" height="50" as="geometry" />
        </mxCell>
        <mxCell id="voaHNW0k9UuCX55IlwGp-4" value="Ceilometer/Monasca&amp;nbsp;" style="rounded=0;whiteSpace=wrap;html=1;gradientColor=#7ea6e0;fillColor=#dae8fc;strokeColor=#6c8ebf;" parent="1" vertex="1">
          <mxGeometry x="25" y="1565" width="120" height="40" as="geometry" />
        </mxCell>
        <mxCell id="voaHNW0k9UuCX55IlwGp-6" value="" style="shape=callout;whiteSpace=wrap;html=1;perimeter=calloutPerimeter;rotation=-180;gradientColor=#b3b3b3;fillColor=#f5f5f5;strokeColor=#666666;" parent="1" vertex="1">
          <mxGeometry x="10" y="1610" width="80" height="60" as="geometry" />
        </mxCell>
        <mxCell id="voaHNW0k9UuCX55IlwGp-7" value="Metrics collection" style="text;html=1;strokeColor=#666666;fillColor=#f5f5f5;align=center;verticalAlign=middle;whiteSpace=wrap;rounded=0;gradientColor=#b3b3b3;" parent="1" vertex="1">
          <mxGeometry x="10" y="1640" width="85" height="30" as="geometry" />
        </mxCell>
        <mxCell id="voaHNW0k9UuCX55IlwGp-9" value="" style="rounded=1;whiteSpace=wrap;html=1;fillColor=#f5f5f5;strokeColor=#666666;fontColor=#333333;" parent="1" vertex="1">
          <mxGeometry x="315" y="1560" width="155" height="52" as="geometry" />
        </mxCell>
        <mxCell id="voaHNW0k9UuCX55IlwGp-25" style="edgeStyle=orthogonalEdgeStyle;rounded=0;orthogonalLoop=1;jettySize=auto;html=1;exitX=0.5;exitY=0;exitDx=0;exitDy=0;exitPerimeter=0;" parent="1" source="voaHNW0k9UuCX55IlwGp-13" edge="1">
          <mxGeometry relative="1" as="geometry">
            <mxPoint x="425" y="1469" as="targetPoint" />
            <mxPoint x="425" y="1529" as="sourcePoint" />
          </mxGeometry>
        </mxCell>
        <mxCell id="voaHNW0k9UuCX55IlwGp-13" value="Gnocchi(Time series data base)" style="text;html=1;strokeColor=#6c8ebf;fillColor=#dae8fc;align=center;verticalAlign=middle;whiteSpace=wrap;rounded=0;gradientColor=#7ea6e0;" parent="1" vertex="1">
          <mxGeometry x="325" y="1568" width="135" height="30" as="geometry" />
        </mxCell>
        <mxCell id="voaHNW0k9UuCX55IlwGp-61" style="edgeStyle=orthogonalEdgeStyle;rounded=0;orthogonalLoop=1;jettySize=auto;html=1;entryX=1;entryY=0.5;entryDx=0;entryDy=0;shadow=1;" parent="1" source="voaHNW0k9UuCX55IlwGp-18" target="voaHNW0k9UuCX55IlwGp-52" edge="1">
          <mxGeometry relative="1" as="geometry">
            <Array as="points">
              <mxPoint x="560" y="1430" />
              <mxPoint x="560" y="1160" />
            </Array>
          </mxGeometry>
        </mxCell>
        <mxCell id="voaHNW0k9UuCX55IlwGp-18" value="Watcher Decision Engine" style="rounded=1;whiteSpace=wrap;html=1;gradientColor=#7ea6e0;fillColor=#dae8fc;strokeColor=#6c8ebf;" parent="1" vertex="1">
          <mxGeometry x="410" y="1400" width="120" height="60" as="geometry" />
        </mxCell>
        <mxCell id="voaHNW0k9UuCX55IlwGp-19" value="Strategy" style="rounded=1;whiteSpace=wrap;html=1;gradientColor=#ffa500;fillColor=#ffcd28;strokeColor=#d79b00;" parent="1" vertex="1">
          <mxGeometry x="410" y="1450" width="50" height="20" as="geometry" />
        </mxCell>
        <mxCell id="voaHNW0k9UuCX55IlwGp-20" value="Planner" style="rounded=1;whiteSpace=wrap;html=1;gradientColor=#ffa500;fillColor=#ffcd28;strokeColor=#d79b00;" parent="1" vertex="1">
          <mxGeometry x="480" y="1450" width="50" height="20" as="geometry" />
        </mxCell>
        <mxCell id="voaHNW0k9UuCX55IlwGp-30" value="" style="endArrow=classic;startArrow=classic;html=1;" parent="1" edge="1">
          <mxGeometry width="50" height="50" relative="1" as="geometry">
            <mxPoint x="380" y="1425" as="sourcePoint" />
            <mxPoint x="410" y="1425" as="targetPoint" />
          </mxGeometry>
        </mxCell>
        <mxCell id="voaHNW0k9UuCX55IlwGp-60" style="edgeStyle=orthogonalEdgeStyle;rounded=0;orthogonalLoop=1;jettySize=auto;html=1;entryX=0.65;entryY=1.056;entryDx=0;entryDy=0;entryPerimeter=0;shadow=1;" parent="1" source="voaHNW0k9UuCX55IlwGp-31" target="voaHNW0k9UuCX55IlwGp-52" edge="1">
          <mxGeometry relative="1" as="geometry" />
        </mxCell>
        <mxCell id="voaHNW0k9UuCX55IlwGp-31" value="Watcher Action Applier" style="rounded=1;whiteSpace=wrap;html=1;gradientColor=#7ea6e0;fillColor=#dae8fc;strokeColor=#6c8ebf;" parent="1" vertex="1">
          <mxGeometry x="410" y="1290" width="120" height="60" as="geometry" />
        </mxCell>
        <mxCell id="voaHNW0k9UuCX55IlwGp-33" value="" style="endArrow=classic;startArrow=classic;html=1;" parent="1" edge="1">
          <mxGeometry width="50" height="50" relative="1" as="geometry">
            <mxPoint x="380" y="1319.5" as="sourcePoint" />
            <mxPoint x="410" y="1319.5" as="targetPoint" />
          </mxGeometry>
        </mxCell>
        <mxCell id="voaHNW0k9UuCX55IlwGp-34" value="&lt;span&gt;Rabitmq&lt;/span&gt;&lt;br&gt;&lt;span&gt;(AMQP BUS)&lt;/span&gt;" style="rounded=1;whiteSpace=wrap;html=1;gradientColor=#ea6b66;fillColor=#f8cecc;strokeColor=#b85450;" parent="1" vertex="1">
          <mxGeometry x="315" y="1280" width="65" height="180" as="geometry" />
        </mxCell>
        <mxCell id="voaHNW0k9UuCX55IlwGp-55" style="edgeStyle=orthogonalEdgeStyle;rounded=0;orthogonalLoop=1;jettySize=auto;html=1;shadow=1;entryX=0;entryY=0.5;entryDx=0;entryDy=0;" parent="1" source="voaHNW0k9UuCX55IlwGp-35" target="voaHNW0k9UuCX55IlwGp-52" edge="1">
          <mxGeometry relative="1" as="geometry">
            <mxPoint x="235" y="1120" as="targetPoint" />
            <Array as="points">
              <mxPoint x="235" y="1160" />
            </Array>
          </mxGeometry>
        </mxCell>
        <mxCell id="voaHNW0k9UuCX55IlwGp-35" value="&lt;span&gt;Watcher API&amp;nbsp;&lt;/span&gt;" style="rounded=1;whiteSpace=wrap;html=1;gradientColor=#7ea6e0;fillColor=#dae8fc;strokeColor=#6c8ebf;" parent="1" vertex="1">
          <mxGeometry x="210" y="1320" width="50" height="100" as="geometry" />
        </mxCell>
        <mxCell id="voaHNW0k9UuCX55IlwGp-38" value="" style="endArrow=classic;html=1;entryX=0.282;entryY=0.55;entryDx=0;entryDy=0;entryPerimeter=0;" parent="1" edge="1">
          <mxGeometry width="50" height="50" relative="1" as="geometry">
            <mxPoint x="260" y="1370" as="sourcePoint" />
            <mxPoint x="314.98" y="1370" as="targetPoint" />
          </mxGeometry>
        </mxCell>
        <mxCell id="voaHNW0k9UuCX55IlwGp-40" value="" style="endArrow=classic;html=1;entryX=0;entryY=0.5;entryDx=0;entryDy=0;" parent="1" target="voaHNW0k9UuCX55IlwGp-44" edge="1">
          <mxGeometry width="50" height="50" relative="1" as="geometry">
            <mxPoint x="530" y="1290" as="sourcePoint" />
            <mxPoint x="640" y="1240" as="targetPoint" />
          </mxGeometry>
        </mxCell>
        <mxCell id="voaHNW0k9UuCX55IlwGp-41" value="" style="endArrow=classic;html=1;exitX=1;exitY=0;exitDx=0;exitDy=0;entryX=0;entryY=0.5;entryDx=0;entryDy=0;" parent="1" source="voaHNW0k9UuCX55IlwGp-31" target="voaHNW0k9UuCX55IlwGp-45" edge="1">
          <mxGeometry width="50" height="50" relative="1" as="geometry">
            <mxPoint x="540" y="1300" as="sourcePoint" />
            <mxPoint x="650" y="1250" as="targetPoint" />
          </mxGeometry>
        </mxCell>
        <mxCell id="voaHNW0k9UuCX55IlwGp-42" value="" style="endArrow=classic;html=1;entryX=0;entryY=0.75;entryDx=0;entryDy=0;" parent="1" target="voaHNW0k9UuCX55IlwGp-46" edge="1">
          <mxGeometry width="50" height="50" relative="1" as="geometry">
            <mxPoint x="530" y="1290" as="sourcePoint" />
            <mxPoint x="650" y="1270" as="targetPoint" />
          </mxGeometry>
        </mxCell>
        <mxCell id="voaHNW0k9UuCX55IlwGp-44" value="Nova" style="text;html=1;strokeColor=#d79b00;fillColor=#ffcd28;align=center;verticalAlign=middle;whiteSpace=wrap;rounded=0;gradientColor=#ffa500;" parent="1" vertex="1">
          <mxGeometry x="655" y="1210" width="80" height="20" as="geometry" />
        </mxCell>
        <mxCell id="voaHNW0k9UuCX55IlwGp-45" value="Cinder" style="text;html=1;strokeColor=#d79b00;fillColor=#ffcd28;align=center;verticalAlign=middle;whiteSpace=wrap;rounded=0;gradientColor=#ffa500;" parent="1" vertex="1">
          <mxGeometry x="655" y="1232" width="80" height="20" as="geometry" />
        </mxCell>
        <mxCell id="voaHNW0k9UuCX55IlwGp-46" value="Glance" style="text;html=1;strokeColor=#d79b00;fillColor=#ffcd28;align=center;verticalAlign=middle;whiteSpace=wrap;rounded=0;gradientColor=#ffa500;" parent="1" vertex="1">
          <mxGeometry x="656" y="1254" width="80" height="20" as="geometry" />
        </mxCell>
        <mxCell id="voaHNW0k9UuCX55IlwGp-49" value="OIAAS Components&amp;nbsp;" style="shape=callout;whiteSpace=wrap;html=1;perimeter=calloutPerimeter;gradientColor=#b3b3b3;fillColor=#f5f5f5;strokeColor=#666666;" parent="1" vertex="1">
          <mxGeometry x="690" y="1120" width="80" height="80" as="geometry" />
        </mxCell>
        <mxCell id="voaHNW0k9UuCX55IlwGp-62" style="edgeStyle=orthogonalEdgeStyle;rounded=0;orthogonalLoop=1;jettySize=auto;html=1;entryX=0.027;entryY=0.167;entryDx=0;entryDy=0;entryPerimeter=0;shadow=1;" parent="1" source="voaHNW0k9UuCX55IlwGp-50" target="voaHNW0k9UuCX55IlwGp-35" edge="1">
          <mxGeometry relative="1" as="geometry" />
        </mxCell>
        <mxCell id="voaHNW0k9UuCX55IlwGp-50" value="Watcher CLI" style="rounded=1;whiteSpace=wrap;html=1;gradientColor=#7ea6e0;fillColor=#dae8fc;strokeColor=#6c8ebf;" parent="1" vertex="1">
          <mxGeometry x="10" y="1280" width="120" height="60" as="geometry" />
        </mxCell>
        <mxCell id="voaHNW0k9UuCX55IlwGp-63" style="edgeStyle=orthogonalEdgeStyle;rounded=0;orthogonalLoop=1;jettySize=auto;html=1;entryX=-0.04;entryY=0.88;entryDx=0;entryDy=0;entryPerimeter=0;shadow=1;" parent="1" source="voaHNW0k9UuCX55IlwGp-51" target="voaHNW0k9UuCX55IlwGp-35" edge="1">
          <mxGeometry relative="1" as="geometry" />
        </mxCell>
        <mxCell id="voaHNW0k9UuCX55IlwGp-51" value="Horizon(Watcher Plugin)" style="rounded=1;whiteSpace=wrap;html=1;gradientColor=#7ea6e0;fillColor=#dae8fc;strokeColor=#6c8ebf;" parent="1" vertex="1">
          <mxGeometry x="10" y="1360" width="120" height="60" as="geometry" />
        </mxCell>
        <mxCell id="voaHNW0k9UuCX55IlwGp-52" value="Mysql(Watcher DB)" style="rounded=1;whiteSpace=wrap;html=1;gradientColor=#7ea6e0;fillColor=#dae8fc;strokeColor=#6c8ebf;" parent="1" vertex="1">
          <mxGeometry x="290" y="1130" width="120" height="60" as="geometry" />
        </mxCell>
      </root>
    </mxGraphModel>
  </diagram>
</mxfile>
